HIERARCHY
ROOT Hips
{
	OFFSET 0.00000 0.00000 0.00000
	CHANNELS 6 Xposition Yposition Zposition Zrotation Yrotation Xrotation 
	JOINT LHipJoint
	{
		OFFSET 0 0 0
		CHANNELS 3 Zrotation Yrotation Xrotation
		JOINT LeftHip
		{
			OFFSET 1.36443 -1.53315 0.80540
			CHANNELS 3 Zrotation Yrotation Xrotation
			JOINT LeftKnee
			{
				OFFSET 2.27494 -6.25036 0.00000
				CHANNELS 3 Zrotation Yrotation Xrotation
				JOINT LeftAnkle
				{
					OFFSET 2.17461 -5.97470 0.00000
					CHANNELS 3 Zrotation Yrotation Xrotation
					JOINT LeftToe
					{
						OFFSET 0.22144 -0.60841 2.08966
						CHANNELS 3 Zrotation Yrotation Xrotation
						End Site
						{
							OFFSET 0.00000 -0.00000 1.09206
						}
					}
				}
			}
		}
	}
	JOINT RHipJoint
	{
		OFFSET 0 0 0
		CHANNELS 3 Zrotation Yrotation Xrotation
		JOINT RightHip
		{
			OFFSET -1.29957 -1.53315 0.80539
			CHANNELS 3 Zrotation Yrotation Xrotation
			JOINT RightKnee
			{
				OFFSET -2.23917 -6.15209 0.00000
				CHANNELS 3 Zrotation Yrotation Xrotation
				JOINT RightAnkle
				{
					OFFSET -2.18029 -5.99030 0.00000
					CHANNELS 3 Zrotation Yrotation Xrotation
					JOINT RightToe
					{
						OFFSET -0.22354 -0.61416 1.89975
						CHANNELS 3 Zrotation Yrotation Xrotation
						End Site
						{
							OFFSET -0.00000 -0.00000 1.00221
						}
					}
				}
			}
		}
	}
	JOINT lowerback
	{
		OFFSET 0 0 0
		CHANNELS 3 Zrotation Yrotation Xrotation
		JOINT Chest
		{
			OFFSET -0.04725 2.10352 -0.01215
			CHANNELS 3 Zrotation Yrotation Xrotation
			JOINT Chest2
			{
				OFFSET 0.04471 2.09612 -0.07192
				CHANNELS 3 Zrotation Yrotation Xrotation
				JOINT lowerneck
				{
					OFFSET 0 0 0
					CHANNELS 3 Zrotation Yrotation Xrotation
					JOINT Neck
					{
						OFFSET -0.01586 1.38087 0.11506
						CHANNELS 3 Zrotation Yrotation Xrotation
						JOINT Head
						{
							OFFSET -0.01055 1.38869 -0.12115
							CHANNELS 3 Zrotation Yrotation Xrotation
							End Site
							{
								OFFSET -0.00310 1.39537 -0.05348
							}
						}
					}
				}
				JOINT LeftCollar
				{
					OFFSET 0 0 0
					CHANNELS 3 Zrotation Yrotation Xrotation
					JOINT LeftShoulder
					{
						OFFSET 2.71932 0.62535 0.37316
CHANNELS 3 Zrotation Xrotation Yrotation
						JOINT LeftElbow
						{
OFFSET 0 -4.473660 0.000000
CHANNELS 3 Zrotation Xrotation Yrotation
							JOINT LeftWrist
							{
OFFSET 0 -3.199480 -0.000000
CHANNELS 3 Zrotation Xrotation Yrotation
								JOINT lhand
								{
									OFFSET 0 0 0
CHANNELS 3 Zrotation Xrotation Yrotation
									JOINT LFingers
									{
OFFSET 0 -0.492670 -0.000000
CHANNELS 3 Zrotation Xrotation Yrotation
										End Site
										{
OFFSET 0 -0.397200 -0.000000
										}
									}
								}
								JOINT LThumb
								{
OFFSET 0 0.000000 0.000000
CHANNELS 3 Zrotation Xrotation Yrotation
									End Site
									{
OFFSET 0 -0.403270 0.403270
									}
								}
							}
						}
					}
				}
				JOINT RightCollar
				{
					OFFSET 0 0 0
					CHANNELS 3 Zrotation Yrotation Xrotation
					JOINT RightShoulder
					{
						OFFSET -2.97334 0.70851 0.47631
CHANNELS 3 Zrotation Xrotation Yrotation
						JOINT RightElbow
						{
OFFSET 0 -4.326900 -0.000000
CHANNELS 3 Zrotation Xrotation Yrotation
							JOINT RightWrist
							{
OFFSET 0 -3.189600 0.000000
CHANNELS 3 Zrotation Xrotation Yrotation
								JOINT rhand
								{
									OFFSET 0 0 0
CHANNELS 3 Zrotation Xrotation Yrotation
									JOINT RFingers
									{
OFFSET 0 -0.464500 -0.000000
CHANNELS 3 Zrotation Xrotation Yrotation
										End Site
										{
OFFSET 0 -0.374490 -0.000000
										}
									}
								}
								JOINT RThumb
								{
OFFSET 0 0.000000 0.000000
CHANNELS 3 Zrotation Xrotation Yrotation
									End Site
									{
OFFSET 0 -0.380210 0.380210
									}
								}
							}
						}
					}
				}
			}
		}
	}
}
MOTION
Frames: 5
Frame Time: 0.008333333333333333
9.019500 15.148600 12.082100 3.533900 -6.518000 5.808900 0.000000 0.000000 0.000000 -15.776100 -6.311500 -15.754200 3.926300 12.061700 35.950400 1.273300 17.182500 -33.418300 0.241400 -3.161600 -8.729100 0.000000 0.000000 0.000000 9.123500 24.536200 -13.091100 -4.251800 -12.488100 37.481400 -0.007500 -24.139600 -34.007600 -0.006100 -0.505600 1.389300 -4.663300 -2.283800 -6.516800 3.587200 -2.833800 -0.340900 6.097300 -1.525700 3.716900 -8.456200 -7.917100 -9.335800 21.752600 -10.599800 -0.561500 7.418500 -4.750400 3.150500 0.000000 0.000000 0.000000 3.804500 3.132800 -52.173900 17.860800 -27.978500 4.483700 28.157700 -10.376500 -6.259300 0.000000 0.000000 0.000000 -7.125000 0.000000 0.000000 1.206800 37.068800 0.235500 0.000000 0.000000 0.000000 -8.738800 -0.298600 26.607800 -13.099600 -21.432900 -2.489600 -10.500600 16.581900 33.234000 0.000000 0.000000 0.000000 7.125000 0.000000 -0.000000 26.161400 61.742400 -11.073300
9.000861 15.153837 12.107407 3.380702 -6.810983 5.780695 0.000000 0.000000 0.000000 -15.593371 -6.220696 -15.534399 3.936097 12.074891 35.997373 1.335454 17.150852 -33.750520 0.227227 -3.067878 -8.467890 0.000000 0.000000 0.000000 9.319618 24.039862 -13.227284 -4.235616 -12.467535 37.406546 0.008886 -23.759809 -33.390289 -0.003515 -0.384221 1.055726 -4.747001 -2.560691 -6.441063 3.866864 -3.211476 -0.427359 6.405367 -1.715576 3.659628 -9.765919 -9.613694 -8.340613 19.483771 -12.791864 0.063676 6.709833 -5.910234 3.390160 0.000000 0.000000 0.000000 3.570883 2.881821 -51.800181 17.558653 -27.588349 4.342927 28.944484 -11.476619 -4.751511 0.000000 0.000000 0.000000 -7.125000 0.000000 0.000000 1.902293 35.400452 0.448798 0.000000 0.000000 0.000000 -8.941999 -0.534791 28.315842 -13.239305 -21.636785 -2.540836 -10.637336 16.382122 33.520320 0.000000 0.000000 0.000000 7.125000 0.000000 0.000000 26.296449 62.028801 -11.314026
8.994447 15.151115 12.121826 3.239620 -7.005921 5.534854 0.000000 0.000000 0.000000 -15.442011 -5.906213 -15.317295 3.949812 12.093331 36.062830 1.297641 17.230285 -33.607250 0.224501 -3.049604 -8.416926 0.000000 0.000000 0.000000 9.625547 23.919841 -12.934855 -4.229933 -12.460258 37.380182 -0.001603 -23.608689 -33.247041 -0.003889 -0.400607 1.100844 -4.787052 -3.052607 -6.515993 3.980950 -3.871818 -0.127746 6.465610 -2.069356 4.124909 -12.180319 -12.168385 -7.697997 16.993230 -16.138235 1.721527 5.920493 -7.608442 4.203015 0.000000 0.000000 0.000000 2.966007 2.578464 -49.853165 17.649396 -27.705940 4.384981 28.652082 -11.124762 -5.004886 0.000000 0.000000 0.000000 -7.125000 0.000000 0.000000 1.654219 35.674681 0.379284 0.000000 0.000000 0.000000 -9.357390 -1.526565 30.102071 -13.237174 -21.633733 -2.540046 -11.382267 16.198342 33.088025 0.000000 0.000000 0.000000 7.125000 0.000000 0.000000 25.095797 61.832005 -10.642988
8.995088 15.152345 12.118573 2.829703 -7.483215 5.676667 0.000000 0.000000 0.000000 -15.033703 -6.233370 -15.199124 3.966963 12.116317 36.144815 1.431014 17.314960 -34.453502 0.162637 -2.597881 -7.161208 0.000000 0.000000 0.000000 9.996166 24.316262 -13.040546 -4.201355 -12.423618 37.247525 -0.010869 -23.480392 -33.128771 -0.002477 -0.320082 0.879350 -4.675225 -2.850450 -6.431225 3.810866 -3.604820 -0.170765 6.255799 -1.925818 3.972661 -12.047564 -11.723803 -7.584444 18.166651 -15.660550 1.697254 6.328558 -7.345899 4.213036 0.000000 0.000000 0.000000 2.725705 3.032567 -49.887346 17.845169 -27.958382 4.476442 28.860238 -10.706596 -4.723310 0.000000 0.000000 0.000000 -7.125000 0.000000 0.000000 1.832247 35.364421 0.433931 0.000000 0.000000 0.000000 -9.723074 -1.061816 29.767283 -13.368505 -21.824683 -2.588785 -10.641144 15.780761 33.525710 0.000000 0.000000 0.000000 7.125000 0.000000 0.000000 26.297221 62.034663 -11.317538
8.994308 15.152530 12.112578 2.805847 -7.748966 5.739988 0.000000 0.000000 0.000000 -15.048256 -6.483954 -15.049099 3.942384 12.083406 36.027550 1.453834 17.597916 -34.849234 0.152425 -2.515796 -6.933380 0.000000 0.000000 0.000000 9.928297 24.306547 -13.299747 -4.218305 -12.445354 37.326107 -0.043601 -23.199773 -32.948261 -0.001438 -0.239993 0.659350 -4.871780 -2.828948 -6.246521 3.671570 -3.562986 -0.091459 6.230810 -1.908446 3.948634 -12.469705 -12.123796 -7.360428 18.411536 -16.216321 1.696094 6.407265 -7.625919 4.317663 0.000000 0.000000 0.000000 2.827607 3.349888 -49.999486 17.992597 -28.147626 4.545757 28.689965 -10.925361 -4.925595 0.000000 0.000000 0.000000 -7.125000 0.000000 0.000000 1.687191 35.586373 0.390395 0.000000 0.000000 0.000000 -9.574183 -1.365146 28.292266 -12.817383 -21.019077 -2.387393 -9.592789 16.807297 34.349354 0.000000 0.000000 0.000000 7.125000 0.000000 0.000000 28.227425 62.488140 -12.522377
